<svg width="500" height="500" viewBox="0 0 500 500" fill="none" xmlns="http://www.w3.org/2000/svg">
<path d="M500 382.4H0V382.65H500V382.4Z" fill="#EBEBEB"/>
<path d="M449.9 398.49H416.78V398.74H449.9V398.49Z" fill="#EBEBEB"/>
<path d="M331.22 401.21H292V401.46H331.22V401.21Z" fill="#EBEBEB"/>
<path d="M415.78 389.21H358.76V389.46H415.78V389.21Z" fill="#EBEBEB"/>
<path d="M243.11 390.89H174.48V391.14H243.11V390.89Z" fill="#EBEBEB"/>
<path d="M258.34 390.89H252.01V391.14H258.34V390.89Z" fill="#EBEBEB"/>
<path d="M225.14 395.11H98.33V395.36H225.14V395.11Z" fill="#EBEBEB"/>
<path d="M237 337.8H43.91C42.3973 337.797 40.9475 337.195 39.8788 336.124C38.8102 335.053 38.21 333.603 38.21 332.09V60.66C38.2231 59.156 38.8292 57.718 39.8964 56.6582C40.9637 55.5985 42.4059 55.0026 43.91 55H237C238.514 55 239.967 55.6016 241.038 56.6724C242.108 57.7433 242.71 59.1956 242.71 60.71V332.09C242.71 333.604 242.108 335.057 241.038 336.128C239.967 337.198 238.514 337.8 237 337.8ZM43.91 55.2C42.4636 55.2026 41.0774 55.7791 40.0556 56.8027C39.0338 57.8264 38.46 59.2136 38.46 60.66V332.09C38.46 333.536 39.0338 334.924 40.0556 335.947C41.0774 336.971 42.4636 337.547 43.91 337.55H237C238.447 337.547 239.834 336.971 240.858 335.948C241.881 334.924 242.457 333.537 242.46 332.09V60.66C242.457 59.2127 241.881 57.8255 240.858 56.8021C239.834 55.7787 238.447 55.2026 237 55.2H43.91Z" fill="#EBEBEB"/>
<path d="M453.31 337.8H260.21C258.696 337.797 257.246 337.195 256.175 336.125C255.105 335.054 254.503 333.604 254.5 332.09V60.66C254.516 59.1551 255.124 57.7171 256.193 56.6576C257.262 55.5981 258.705 55.0025 260.21 55H453.31C454.812 55.0052 456.252 55.6022 457.317 56.6617C458.382 57.7212 458.987 59.1578 459 60.66V332.09C459 333.601 458.401 335.05 457.335 336.121C456.268 337.191 454.821 337.795 453.31 337.8ZM260.21 55.2C258.763 55.2026 257.375 55.7787 256.352 56.8021C255.329 57.8255 254.753 59.2127 254.75 60.66V332.09C254.753 333.537 255.329 334.924 256.352 335.948C257.375 336.971 258.763 337.547 260.21 337.55H453.31C454.757 337.547 456.145 336.971 457.168 335.948C458.191 334.924 458.767 333.537 458.77 332.09V60.66C458.767 59.2127 458.191 57.8255 457.168 56.8021C456.145 55.7787 454.757 55.2026 453.31 55.2H260.21Z" fill="#EBEBEB"/>
<path d="M290.67 244.7V80.8601L70.94 80.8601V244.7H290.67Z" fill="#EBEBEB"/>
<path d="M292 244.7V80.8601H290.67V244.7H292Z" fill="#E0E0E0"/>
<path d="M81.8101 233.81L279.79 233.81V91.7201L81.8101 91.7201L81.8101 233.81Z" fill="#F5F5F5"/>
<path d="M227.14 241.43H262.36V192.13H227.14V241.43Z" fill="white"/>
<path d="M175.48 224.08H210.69L213.22 174.78H178.01L175.48 224.08Z" fill="white"/>
<path d="M153.43 241.43H188.65V192.13H153.43V241.43Z" fill="white"/>
<path d="M101.77 224.08H136.99L139.52 174.78H104.31L101.77 224.08Z" fill="white"/>
<path d="M131.55 162.52L179.49 165.94L187.73 99.0799L139.78 95.6599L131.55 162.52Z" fill="white"/>
<path d="M246.79 136.36H282L284.54 87.0601H249.32L246.79 136.36Z" fill="white"/>
<path d="M200.521 164.581L235.707 166.123L237.866 116.87L202.68 115.328L200.521 164.581Z" fill="white"/>
<path d="M77.1688 150.877L112.374 149.857L110.946 100.578L75.7407 101.598L77.1688 150.877Z" fill="white"/>
<path d="M336.61 226.31H426.07V94.7501H336.61V226.31Z" fill="#E0E0E0"/>
<path d="M331.22 226.31H423.63V94.7501H331.22V226.31Z" fill="#F5F5F5"/>
<path d="M338.96 105.12V215.95H415.89V105.12H338.96Z" fill="white"/>
<path d="M387 165.89V174.32C384.486 174.321 381.996 173.827 379.672 172.866C377.349 171.905 375.238 170.495 373.459 168.718C371.681 166.94 370.27 164.83 369.308 162.507C368.345 160.184 367.85 157.694 367.85 155.18V146.74C372.929 146.74 377.8 148.758 381.391 152.349C384.982 155.94 387 160.811 387 165.89Z" fill="#F5F5F5"/>
<path d="M387 137.43V145.87C381.921 145.87 377.05 143.852 373.459 140.261C369.868 136.67 367.85 131.799 367.85 126.72V118.29C370.364 118.289 372.854 118.783 375.178 119.744C377.501 120.705 379.612 122.115 381.39 123.892C383.169 125.67 384.58 127.78 385.542 130.103C386.505 132.426 387 134.916 387 137.43Z" fill="#F5F5F5"/>
<path d="M387 194.34V202.78C381.921 202.78 377.05 200.762 373.459 197.171C369.868 193.58 367.85 188.709 367.85 183.63V175.19C372.929 175.19 377.8 177.208 381.391 180.799C384.982 184.39 387 189.261 387 194.34Z" fill="#F5F5F5"/>
<path d="M260.12 375.78H288.19V271.37H260.12V375.78Z" fill="#F0F0F0"/>
<path d="M90.85 382.4H279.14V375.78H90.85V382.4Z" fill="#F0F0F0"/>
<path d="M260.12 271.38H81.8199V375.79H260.12V271.38Z" fill="#F5F5F5"/>
<path d="M241.61 284.23H100.33V318.47H241.61V284.23Z" fill="#F0F0F0"/>
<path d="M241.61 328.69H100.33V362.93H241.61V328.69Z" fill="#F0F0F0"/>
<path d="M149.79 319.6H192.15C193.293 319.6 194.22 318.673 194.22 317.53V316.97C194.22 315.827 193.293 314.9 192.15 314.9H149.79C148.647 314.9 147.72 315.827 147.72 316.97V317.53C147.72 318.673 148.647 319.6 149.79 319.6Z" fill="#F5F5F5"/>
<path d="M149.79 364.07H192.15C193.293 364.07 194.22 363.143 194.22 362V361.44C194.22 360.297 193.293 359.37 192.15 359.37H149.79C148.647 359.37 147.72 360.297 147.72 361.44V362C147.72 363.143 148.647 364.07 149.79 364.07Z" fill="#F5F5F5"/>
<path d="M383.08 356.66C383.15 332.47 383.75 299.48 387.81 287.54L393.37 285.28C393.37 285.28 392 287.52 389 324.63C386.17 359.28 385.86 353.09 386.07 356.63C386.07 357.12 385.39 357.53 384.53 357.51C383.72 357.49 383.08 357.12 383.08 356.66Z" fill="#E6E6E6"/>
<path d="M379.89 282.07C371.84 275.38 354.28 270.37 335.8 270.01C328.54 269.87 349.57 285.82 363.8 293.51C374.37 299.23 386.03 304.42 388.9 310.51C388.15 297.77 388 288.75 379.89 282.07Z" fill="#E6E6E6"/>
<path d="M381.09 315.29C375.48 310.63 363.24 307.14 350.36 306.89C345.3 306.79 359.96 317.89 369.87 323.27C377.23 327.27 385.36 330.87 387.36 335.14C386.85 326.24 386.71 320 381.09 315.29Z" fill="#E6E6E6"/>
<path d="M396.43 299C405.65 291.59 425.43 286.15 446.19 285.92C454.33 285.84 435.91 302.19 416.42 309.73C402.9 315 388.9 324 385.51 330.86C386.71 316.56 387.21 306.45 396.43 299Z" fill="#E6E6E6"/>
<path d="M391.4 275.65C397.45 269.46 411.05 263.65 425.57 261.49C431.27 260.64 423.69 271.85 406.08 281.2C396.79 286.12 387.5 294.2 385.5 299.41C385.55 289.09 385.34 281.83 391.4 275.65Z" fill="#E6E6E6"/>
<path d="M369.09 352.59L370.56 381.16C370.578 381.494 370.722 381.808 370.964 382.038C371.206 382.269 371.526 382.398 371.86 382.4H404.16C404.494 382.398 404.814 382.269 405.056 382.038C405.298 381.808 405.442 381.494 405.46 381.16L406.93 352.59H369.09Z" fill="#F0F0F0"/>
<path d="M409.38 358.65H366.64L365.42 347.56H410.61L409.38 358.65Z" fill="#F0F0F0"/>
<path d="M250 437.56C357.082 437.56 443.89 432.492 443.89 426.24C443.89 419.988 357.082 414.92 250 414.92C142.917 414.92 56.11 419.988 56.11 426.24C56.11 432.492 142.917 437.56 250 437.56Z" fill="#F5F5F5"/>
<path d="M381.37 82L380.42 81.68C381.009 79.913 381.31 78.0626 381.31 76.2H382.31C382.308 78.171 381.991 80.1291 381.37 82Z" fill="#7E57C2"/>
<path d="M380.58 71.18C379.782 68.54 378.38 66.1224 376.484 64.1192C374.589 62.1159 372.252 60.5823 369.66 59.6399L370 58.7C372.74 59.6943 375.209 61.3153 377.211 63.4335C379.213 65.5517 380.692 68.1086 381.53 70.9L380.58 71.18Z" fill="#7E57C2"/>
<path d="M378.81 76.2101C378.812 73.4402 378.054 70.7229 376.618 68.3546C375.181 65.9864 373.122 64.0582 370.664 62.7806C368.206 61.503 365.445 60.9251 362.681 61.1099C359.918 61.2946 357.258 62.235 354.992 63.8284C352.726 65.4218 350.942 67.6069 349.834 70.1453C348.725 72.6837 348.335 75.4778 348.706 78.2227C349.078 80.9675 350.196 83.5577 351.939 85.7105C353.682 87.8632 355.982 89.4958 358.59 90.4301L368.97 94.4301L367 91.0001C370.358 90.2468 373.358 88.3706 375.505 85.6815C377.653 82.9924 378.818 79.6513 378.81 76.2101Z" fill="#7E57C2"/>
<path d="M340.34 85.88C340.338 83.8504 340.894 81.8592 341.947 80.1239C342.999 78.3886 344.508 76.9757 346.309 76.0395C348.11 75.1033 350.133 74.6797 352.158 74.8149C354.183 74.9502 356.132 75.6391 357.793 76.8064C359.453 77.9738 360.761 79.5748 361.573 81.4347C362.386 83.2946 362.672 85.3419 362.4 87.3533C362.129 89.3647 361.31 91.2628 360.033 92.8405C358.756 94.4182 357.07 95.6149 355.16 96.3L347.55 99.3L349 96.69C346.545 96.1368 344.351 94.7656 342.777 92.8015C341.203 90.8373 340.344 88.3967 340.34 85.88Z" fill="#263238"/>
<path d="M399.24 118.41C395.05 122.11 386.15 124.85 381.03 124.41C378.42 141.19 392.45 154.55 392.45 154.55C392.45 154.55 410.38 147.2 414.03 130.61C409.1 129.17 401.8 123.38 399.24 118.41Z" fill="#7E57C2"/>
<path opacity="0.3" d="M383.25 126.9C382.46 138.5 390.06 148.22 393.02 151.53C397.02 149.53 407.58 143.22 411.02 132.13C406.142 129.762 401.881 126.294 398.57 122C393.912 124.797 388.667 126.475 383.25 126.9Z" fill="white"/>
<path d="M212.55 72.53L226.23 57.99L244.35 66.34L212.55 72.53Z" fill="#7E57C2"/>
<path d="M244.356 66.3468L212.552 72.5346C211.094 72.8183 210.141 74.2305 210.425 75.6888L213.849 93.2888C214.133 94.7471 215.545 95.6993 217.004 95.4156L248.807 89.2278C250.266 88.9441 251.218 87.5319 250.934 86.0736L247.51 68.4736C247.226 67.0153 245.814 66.0631 244.356 66.3468Z" fill="#7E57C2"/>
<path opacity="0.4" d="M212.55 72.5301L230.68 80.8701L244.35 66.3401L212.55 72.5301Z" fill="black"/>
<path d="M212.88 61.4401L217.43 74.7701L230.68 80.8701L241.36 69.5201L235.91 53.5701L212.88 61.4401Z" fill="#7E57C2"/>
<g opacity="0.7">
<path d="M212.88 61.4401L217.43 74.7701L230.68 80.8701L241.36 69.5201L235.91 53.5701L212.88 61.4401Z" fill="white"/>
</g>
<path d="M210.81 119.29L209.01 119.19C208.637 118.61 208.204 118.071 207.72 117.58L208.02 115.8L203.61 113.37L202.27 114.57C201.592 114.428 200.902 114.351 200.21 114.34L199.21 112.87L194.37 114.27L194.27 116.08C193.685 116.45 193.142 116.883 192.65 117.37L190.88 117.06L188.45 121.48L189.64 122.81C189.497 123.491 189.42 124.184 189.41 124.88L187.95 125.88L189.35 130.72L191.14 130.82C191.517 131.4 191.949 131.943 192.43 132.44L192.13 134.21L196.55 136.64L197.88 135.44C198.561 135.582 199.254 135.659 199.95 135.67L200.95 137.14L205.79 135.74L205.88 133.94C206.458 133.557 207.001 133.122 207.5 132.64L209.27 132.94L211.7 128.53L210.49 127.19C210.637 126.533 210.717 125.863 210.73 125.19L212.2 124.19L210.81 119.29ZM201.45 129.83C200.5 130.103 199.491 130.089 198.549 129.788C197.607 129.488 196.776 128.915 196.16 128.143C195.543 127.37 195.17 126.432 195.086 125.447C195.003 124.463 195.213 123.475 195.69 122.61C196.168 121.744 196.891 121.04 197.768 120.585C198.646 120.131 199.638 119.946 200.621 120.055C201.603 120.165 202.531 120.562 203.287 121.199C204.044 121.835 204.594 122.681 204.87 123.63C205.053 124.262 205.11 124.923 205.038 125.577C204.965 126.231 204.764 126.864 204.446 127.44C204.129 128.016 203.701 128.523 203.186 128.934C202.672 129.344 202.082 129.648 201.45 129.83Z" fill="#7E57C2"/>
<path d="M187.17 116.72L186.07 116.66C185.844 116.299 185.579 115.963 185.28 115.66L185.47 114.57L182.77 113.08L181.94 113.82C181.53 113.728 181.11 113.682 180.69 113.68L180.05 112.78L177.05 113.64L176.99 114.74C176.629 114.966 176.293 115.231 175.99 115.53L174.9 115.34L173.41 118.04L174.14 118.86C174.057 119.279 174.01 119.703 174 120.13L173.11 120.76L173.96 123.76L175.06 123.82C175.296 124.177 175.564 124.512 175.86 124.82L175.67 125.9L178.37 127.39L179.19 126.66C179.609 126.742 180.033 126.789 180.46 126.8L181.09 127.7L184.09 126.84L184.15 125.74C184.507 125.508 184.841 125.243 185.15 124.95L186.23 125.13L187.72 122.43L186.98 121.61C187.07 121.196 187.121 120.774 187.13 120.35L188.02 119.71L187.17 116.72ZM182 125C181.049 125.277 180.038 125.266 179.094 124.967C178.15 124.668 177.315 124.096 176.697 123.323C176.078 122.55 175.703 121.61 175.619 120.624C175.535 119.637 175.746 118.648 176.225 117.781C176.704 116.914 177.43 116.21 178.31 115.756C179.19 115.302 180.185 115.12 181.169 115.232C182.152 115.344 183.081 115.746 183.836 116.387C184.591 117.027 185.139 117.878 185.41 118.83C185.772 120.1 185.616 121.462 184.977 122.618C184.338 123.774 183.268 124.631 182 125Z" fill="#263238"/>
<path d="M293.85 96.3801C289.21 95.5101 287.24 98.3801 287.39 102.48C287.54 106.58 284.33 112.48 288.39 113.27C292.45 114.06 298.86 97.3101 293.85 96.3801Z" fill="#263238"/>
<path d="M276.76 306C290.66 266.3 301.19 214.66 301.19 214.66L263.12 214.04C263.12 214.04 257.26 279.29 254 307C250.59 335.81 238.93 399.72 238.93 399.72L255.64 404.44C255.64 404.44 274.41 341.85 276.76 306Z" fill="#263238"/>
<path opacity="0.2" d="M284 243.34C284 243.34 282.89 273.83 281.53 291.47C285.11 280.02 288.36 268.25 291.14 257.47L284 243.34Z" fill="black"/>
<path d="M250.1 416.93L248.67 425.07C248.628 425.271 248.545 425.462 248.427 425.63C248.309 425.798 248.158 425.94 247.983 426.048C247.808 426.156 247.613 426.226 247.409 426.256C247.206 426.286 246.998 426.273 246.8 426.22C244.33 425.52 243.31 424.8 239.02 423.52C234.02 422.01 229.55 421.45 223.67 419.69C220.11 418.62 221.67 414.28 224.67 414.31C231.01 414.38 234.6 412.15 237.91 411.19C239.5 408.57 241.62 398.72 241.62 398.72L255.08 403.53C255.08 403.53 251.15 412.76 250.1 416.93Z" fill="#7E57C2"/>
<path d="M239 402.16L254.29 406.74C254.6 406.828 254.931 406.802 255.223 406.666C255.515 406.53 255.748 406.294 255.88 406L258.14 401.07C258.219 400.907 258.262 400.729 258.266 400.547C258.27 400.366 258.236 400.186 258.165 400.02C258.094 399.853 257.988 399.703 257.854 399.581C257.721 399.458 257.562 399.366 257.39 399.31L240.82 394.06C240.637 394.006 240.445 393.992 240.256 394.017C240.068 394.043 239.886 394.107 239.724 394.207C239.562 394.307 239.423 394.44 239.315 394.597C239.208 394.755 239.134 394.933 239.1 395.12L238.1 400.72C238.046 401.029 238.108 401.347 238.274 401.613C238.44 401.878 238.699 402.073 239 402.16Z" fill="#263238"/>
<path opacity="0.1" d="M239 402.16L254.29 406.74C254.6 406.828 254.931 406.802 255.223 406.666C255.515 406.53 255.748 406.294 255.88 406L258.14 401.07C258.219 400.907 258.262 400.729 258.266 400.547C258.27 400.366 258.236 400.186 258.165 400.02C258.094 399.853 257.988 399.703 257.854 399.581C257.721 399.458 257.562 399.366 257.39 399.31L240.82 394.06C240.637 394.006 240.445 393.992 240.256 394.017C240.068 394.043 239.886 394.107 239.724 394.207C239.562 394.307 239.423 394.44 239.315 394.597C239.208 394.755 239.134 394.933 239.1 395.12L238.1 400.72C238.046 401.029 238.108 401.347 238.274 401.613C238.44 401.878 238.699 402.073 239 402.16Z" fill="white"/>
<path d="M319.24 423.41L317.68 416.41C317.2 412.15 317.52 402.28 317.52 402.28L304.08 402.62C304.08 402.62 305.08 411.62 305.03 414.79C302.45 416.6 299.86 419.13 294.27 420.79C291.64 421.56 291.89 426.12 295.37 426.18C301.14 426.28 305.23 425.61 310.15 425.7C314.35 425.77 314.84 426.18 317.25 426.18C317.583 426.178 317.91 426.097 318.205 425.944C318.5 425.792 318.756 425.571 318.95 425.301C319.144 425.031 319.271 424.719 319.321 424.39C319.372 424.062 319.344 423.726 319.24 423.41Z" fill="#7E57C2"/>
<path d="M314.53 303.62C313.37 262.55 317.98 238.92 311.93 214.86L277.3 214.34C277.3 214.34 286.57 279.5 291.12 306.64C295.67 333.78 302.12 402.31 302.12 402.31L319.12 402.52C319.12 402.52 321.09 335.4 314.53 303.62Z" fill="#263238"/>
<path d="M302.5 405.36L318.58 405.61C318.926 405.625 319.264 405.509 319.528 405.284C319.791 405.06 319.96 404.744 320 404.4L320.55 399.08C320.571 398.908 320.556 398.734 320.506 398.569C320.455 398.403 320.371 398.25 320.258 398.119C320.145 397.988 320.006 397.883 319.849 397.809C319.693 397.735 319.523 397.694 319.35 397.69L301.84 397.15C301.643 397.145 301.446 397.183 301.265 397.262C301.084 397.341 300.922 397.458 300.791 397.605C300.66 397.753 300.562 397.927 300.505 398.116C300.448 398.305 300.432 398.505 300.46 398.7L301.33 404.3C301.372 404.585 301.511 404.847 301.725 405.04C301.938 405.234 302.212 405.347 302.5 405.36Z" fill="#263238"/>
<path opacity="0.1" d="M302.5 405.36L318.58 405.61C318.926 405.625 319.264 405.509 319.528 405.284C319.791 405.06 319.96 404.744 320 404.4L320.55 399.08C320.571 398.908 320.556 398.734 320.506 398.569C320.455 398.403 320.371 398.25 320.258 398.119C320.145 397.988 320.006 397.883 319.849 397.809C319.693 397.735 319.523 397.694 319.35 397.69L301.84 397.15C301.643 397.145 301.446 397.183 301.265 397.262C301.084 397.341 300.922 397.458 300.791 397.605C300.66 397.753 300.562 397.927 300.505 398.116C300.448 398.305 300.432 398.505 300.46 398.7L301.33 404.3C301.372 404.585 301.511 404.847 301.725 405.04C301.938 405.234 302.212 405.347 302.5 405.36Z" fill="white"/>
<path d="M275.12 139.05H275L258.78 137.82C254.22 137.447 249.683 137.013 245.17 136.52C244.602 135.518 244.094 134.483 243.65 133.42C242.746 131.238 241.995 128.996 241.4 126.71C240.77 124.36 240.25 121.92 239.81 119.45C239.37 116.98 239 114.45 238.69 112V111.8C238.582 110.985 238.188 110.234 237.577 109.683C236.966 109.132 236.178 108.817 235.356 108.794C234.534 108.771 233.73 109.042 233.089 109.558C232.449 110.074 232.013 110.802 231.86 111.61C231.379 114.383 231.092 117.187 231 120C230.879 122.821 230.943 125.647 231.19 128.46C231.449 131.385 231.957 134.282 232.71 137.12C233.523 140.194 234.762 143.139 236.39 145.87C236.792 146.529 237.324 147.099 237.953 147.546C238.582 147.993 239.296 148.308 240.05 148.47L240.54 148.57C243.34 149.17 246.15 149.75 248.96 150.2C251.77 150.65 254.58 151.11 257.4 151.47C260.22 151.83 263.04 152.13 265.87 152.38C268.7 152.63 271.49 152.81 274.44 152.89C276.227 152.905 277.952 152.229 279.252 151.003C280.553 149.777 281.329 148.096 281.42 146.311C281.51 144.526 280.907 142.775 279.737 141.423C278.567 140.072 276.92 139.226 275.14 139.06L275.12 139.05Z" fill="#FF8B7B"/>
<path d="M285.32 140C276.555 138.337 267.689 137.261 258.78 136.78C257.048 143.877 257.182 151.301 259.17 158.33C259.17 158.33 263.12 160.33 274.33 158.95C286.86 157.33 295.87 142.15 285.32 140Z" fill="#7E57C2"/>
<path d="M314.54 143.71C305.15 141.483 295.557 140.219 285.91 139.94C275.47 139.73 267.3 144.89 265.31 155.15C261.392 175.688 260.305 196.667 262.08 217.5C262.16 221.21 309.2 220.89 313.08 217.5C314.77 204.25 312.91 190.05 321.6 160.39C323.38 154.29 320.66 145.17 314.54 143.71Z" fill="#7E57C2"/>
<path d="M286.38 154C286.18 154.86 285.65 155.47 285.19 155.36C284.73 155.25 284.53 154.47 284.73 153.61C284.93 152.75 285.46 152.14 285.92 152.25C286.38 152.36 286.58 153.18 286.38 154Z" fill="white"/>
<path d="M367.16 129.56C367.482 126.595 367.592 123.611 367.49 120.63C367.454 119.76 367.109 118.931 366.516 118.292C365.924 117.654 365.124 117.248 364.258 117.146C363.393 117.045 362.521 117.256 361.797 117.74C361.073 118.225 360.546 118.952 360.31 119.79L360.25 120C359.56 122.46 358.8 125.13 357.95 127.63C357.1 130.13 356.2 132.63 355.17 134.99C354.202 137.298 353.076 139.537 351.8 141.69C351.169 142.73 350.478 143.731 349.73 144.69C344.93 144.523 340.11 144.287 335.27 143.98L318.09 142.8H318C316.064 142.621 314.136 143.218 312.64 144.461C311.145 145.703 310.204 147.489 310.025 149.425C309.846 151.361 310.443 153.289 311.686 154.785C312.928 156.28 314.714 157.221 316.65 157.4C319.75 157.77 322.65 157.99 325.7 158.18C328.75 158.37 331.7 158.47 334.7 158.51C337.7 158.55 340.7 158.51 343.7 158.51C346.7 158.51 349.75 158.28 352.78 158.08H353.32C354.134 158.024 354.928 157.803 355.654 157.43C356.379 157.057 357.021 156.54 357.54 155.91C359.661 153.298 361.401 150.4 362.71 147.3C363.937 144.447 364.914 141.492 365.63 138.47C366.336 135.537 366.847 132.561 367.16 129.56Z" fill="#FF8B7B"/>
<path d="M307.18 142.15C316.614 141.742 326.065 141.966 335.47 142.82C336.212 150.519 334.944 158.278 331.79 165.34C331.79 165.34 327.34 166.85 315.79 163.68C302.92 160.13 295.79 142.84 307.18 142.15Z" fill="#7E57C2"/>
<path d="M365.72 125L373.56 119.23L364.46 111.85C364.46 111.85 358 118 360.59 122L365.72 125Z" fill="#FF8B7B"/>
<path d="M375.27 109L371.66 107C370.964 106.61 370.149 106.487 369.368 106.654C368.588 106.822 367.895 107.268 367.42 107.91L364.42 111.83L373.52 119.21L376.52 113.77C376.981 112.97 377.108 112.021 376.874 111.129C376.64 110.236 376.064 109.471 375.27 109Z" fill="#FF8B7B"/>
<path d="M376.09 167.05C375.761 166.196 375.107 165.506 374.272 165.132C373.437 164.757 372.487 164.728 371.63 165.05H371.51C369.15 165.94 366.66 166.89 364.24 167.74C361.82 168.59 359.37 169.44 356.94 170.18C354.51 170.92 352.09 171.57 349.71 172.18C348.36 172.48 347.02 172.73 345.71 172.92C342.377 169.833 339.043 166.68 335.71 163.46L324.14 152L324.07 151.93C322.774 150.702 321.053 150.021 319.267 150.031C317.481 150.04 315.768 150.739 314.484 151.981C313.201 153.223 312.447 154.913 312.379 156.697C312.311 158.482 312.935 160.224 314.12 161.56C316.12 163.73 318.12 165.7 320.12 167.69C322.12 169.68 324.23 171.6 326.37 173.48C328.51 175.36 330.65 177.21 332.86 179.01C335.07 180.81 337.34 182.57 339.63 184.29L340.07 184.63C340.684 185.083 341.384 185.405 342.127 185.577C342.87 185.749 343.64 185.767 344.39 185.63C347.336 185.078 350.229 184.279 353.04 183.24C355.707 182.246 358.317 181.108 360.86 179.83C363.36 178.563 365.783 177.197 368.13 175.73C370.5 174.272 372.793 172.694 375 171C375.578 170.543 375.994 169.913 376.19 169.203C376.386 168.493 376.351 167.739 376.09 167.05Z" fill="#FF8B7B"/>
<path d="M317.51 144.88C324.518 150.398 331.149 156.378 337.36 162.78C333.149 168.748 327.465 173.523 320.86 176.64C320.86 176.64 316.74 174.98 310.44 165.64C303.39 155.13 308.92 138.36 317.51 144.88Z" fill="#7E57C2"/>
<path d="M374.62 171.21L383.35 168.21L376.87 159.21C376.87 159.21 369.46 163.21 370.87 167.56L374.62 171.21Z" fill="#FF8B7B"/>
<path d="M387.21 159.43L384.42 156.69C383.883 156.163 383.173 155.85 382.422 155.809C381.67 155.769 380.93 156.004 380.34 156.47L376.67 159.32L383.32 168.18L387.23 164.08C387.836 163.457 388.174 162.62 388.17 161.751C388.166 160.881 387.822 160.048 387.21 159.43Z" fill="#FF8B7B"/>
<path d="M288 148.65C289.403 150.336 290.177 152.457 290.19 154.65C299.48 153.06 307.19 148.45 308.19 142.29C306.62 140.81 305.58 141.07 305.58 141.07C305.58 141.07 299.19 146.58 288 148.65Z" fill="white"/>
<path d="M288 148.65C285.497 149.082 283.214 150.348 281.52 152.24C277.95 148.77 282.6 141.33 285.45 139.93C286.697 139.571 288.005 139.479 289.29 139.66C289.29 139.66 285.34 141.77 288 148.65Z" fill="white"/>
<path d="M307.2 119.44C305.41 125.12 303.15 135.06 305.43 140.77C305.706 141.458 305.743 142.218 305.535 142.929C305.326 143.64 304.884 144.261 304.28 144.69C300.068 147.89 294.822 149.421 289.55 148.99C283.61 148.5 283.24 145.42 284.43 142.81C284.745 142.152 285.203 141.573 285.77 141.114C286.338 140.656 287.001 140.33 287.71 140.16C293.71 138.69 293.98 133.63 293.32 128.75L307.2 119.44Z" fill="#FF8B7B"/>
<path opacity="0.2" d="M301.54 123.24L293.33 128.75C293.51 129.985 293.587 131.232 293.56 132.48C296.43 132.41 300.67 129.76 301.3 126.84C301.599 125.665 301.681 124.445 301.54 123.24Z" fill="black"/>
<path d="M312.43 111C309.58 119.67 308.35 124.88 302.74 128.32C294.3 133.5 284.54 126.86 284.74 117.58C284.94 109.22 289.56 96.4601 299.06 95.0301C301.134 94.6894 303.262 94.895 305.233 95.6267C307.203 96.3584 308.949 97.5909 310.299 99.2028C311.648 100.815 312.554 102.75 312.928 104.819C313.302 106.888 313.13 109.018 312.43 111Z" fill="#FF8B7B"/>
<path d="M288 112.72C287.602 112.718 287.206 112.65 286.83 112.52C286.176 112.253 285.598 111.829 285.148 111.285C284.698 110.74 284.389 110.093 284.25 109.4C283.882 107.71 283.992 105.95 284.57 104.319C285.148 102.689 286.17 101.252 287.52 100.17C288.047 99.6895 288.695 99.361 289.394 99.2197C290.093 99.0784 290.818 99.1295 291.49 99.3677C292.163 99.6059 292.758 100.022 293.212 100.572C293.666 101.122 293.963 101.785 294.07 102.49C294.473 104.181 294.362 105.953 293.75 107.58C292.7 110.65 290.3 112.72 288 112.72ZM290.3 99.6602C289.395 99.6881 288.523 100.003 287.81 100.56C286.533 101.58 285.566 102.938 285.02 104.479C284.474 106.02 284.37 107.683 284.72 109.28C284.838 109.895 285.108 110.472 285.504 110.957C285.9 111.442 286.411 111.821 286.99 112.06C289.27 112.87 292.1 110.79 293.3 107.41C293.873 105.879 293.981 104.212 293.61 102.62C293.488 102.004 293.216 101.427 292.819 100.94C292.421 100.454 291.91 100.073 291.33 99.8302C291.012 99.7183 290.677 99.6608 290.34 99.6602H290.3Z" fill="#263238"/>
<path d="M298.23 116.33C297.831 116.333 297.435 116.266 297.06 116.13C294.53 115.23 293.51 111.55 294.8 107.93C295.346 106.283 296.374 104.837 297.75 103.78C298.284 103.319 298.931 103.008 299.625 102.877C300.318 102.747 301.034 102.802 301.699 103.038C302.364 103.273 302.955 103.681 303.412 104.219C303.869 104.756 304.175 105.405 304.3 106.1C304.703 107.791 304.592 109.563 303.98 111.19C302.89 114.27 300.48 116.33 298.23 116.33ZM300.53 103.27C299.624 103.304 298.75 103.618 298.03 104.17C296.735 105.172 295.768 106.537 295.25 108.09C294.06 111.46 294.94 114.87 297.25 115.68C299.56 116.49 302.36 114.4 303.56 111.03C304.135 109.495 304.24 107.824 303.86 106.23C303.74 105.614 303.47 105.038 303.074 104.551C302.678 104.064 302.168 103.683 301.59 103.44C301.249 103.325 300.89 103.268 300.53 103.27Z" fill="#263238"/>
<path d="M295 108.25C294.932 108.247 294.868 108.219 294.82 108.17C294.683 107.989 294.497 107.852 294.285 107.774C294.072 107.696 293.841 107.68 293.62 107.73C293.559 107.746 293.494 107.739 293.439 107.709C293.383 107.679 293.341 107.63 293.32 107.57C293.3 107.509 293.305 107.443 293.333 107.385C293.361 107.328 293.41 107.283 293.47 107.26C293.783 107.186 294.111 107.201 294.415 107.306C294.72 107.41 294.989 107.599 295.19 107.85C295.233 107.896 295.257 107.957 295.257 108.02C295.257 108.083 295.233 108.144 295.19 108.19C295.165 108.214 295.135 108.231 295.102 108.242C295.069 108.252 295.034 108.255 295 108.25Z" fill="#263238"/>
<path d="M310.71 115.91C310.664 115.924 310.616 115.924 310.57 115.91C305.49 112.24 303.57 111.81 303.57 111.81C303.506 111.798 303.45 111.761 303.414 111.708C303.377 111.655 303.363 111.589 303.375 111.525C303.387 111.461 303.424 111.405 303.477 111.369C303.531 111.332 303.596 111.318 303.66 111.33C303.74 111.33 305.66 111.75 310.87 115.52C310.922 115.558 310.957 115.615 310.968 115.678C310.979 115.741 310.966 115.807 310.93 115.86C310.899 115.884 310.864 115.902 310.826 115.91C310.788 115.919 310.748 115.919 310.71 115.91Z" fill="#263238"/>
<path d="M306.64 118.35C303.24 115.18 306.52 111.64 308.64 110.35C310.97 108.91 307.46 107.24 310.32 103.74C298.72 104.02 301.2 98.65 295.08 99.28C291.74 99.62 288.4 96.67 288.82 91.96C289.61 83.06 302.34 81.05 304.36 84.39C299.57 85.24 300.58 88.18 302.68 88.39C308.14 88.84 307.09 91.6201 309.99 94.2301C314.11 97.9301 319.18 94.73 318.54 102.46C326.64 104.46 322.15 113.46 317.01 115.86C313.699 117.209 310.203 118.048 306.64 118.35Z" fill="#263238"/>
<path d="M315.75 102.31C316.564 102.32 317.371 102.156 318.117 101.829C318.862 101.502 319.529 101.019 320.073 100.413C320.616 99.8069 321.024 99.0916 321.268 98.3149C321.513 97.5383 321.588 96.7184 321.49 95.9102C324.53 101.61 320.84 103.4 315.75 102.31Z" fill="#263238"/>
<path d="M313.32 120.37C311.794 121.937 309.743 122.885 307.56 123.03C304.83 123.13 304.5 120.37 306.13 118.03C307.6 115.89 310.8 113.26 313.13 114.29C315.46 115.32 315.3 118.38 313.32 120.37Z" fill="#FF8B7B"/>
<path d="M313.07 121.46C311.75 122.77 309.84 123.01 308.82 121.98C307.8 120.95 308.05 119.06 309.38 117.74C310.71 116.42 312.61 116.18 313.63 117.21C314.65 118.24 314.4 120.14 313.07 121.46Z" fill="#263238"/>
<path d="M292.69 124.62C292.423 124.424 292.216 124.157 292.093 123.85C291.97 123.543 291.936 123.207 291.994 122.881C292.053 122.555 292.201 122.252 292.423 122.006C292.645 121.761 292.931 121.582 293.25 121.491C293.568 121.4 293.905 121.4 294.224 121.491C294.542 121.582 294.828 121.761 295.05 122.006C295.272 122.252 295.421 122.555 295.479 122.881C295.537 123.207 295.503 123.543 295.38 123.85C295.121 124.305 294.695 124.64 294.192 124.784C293.689 124.928 293.15 124.869 292.69 124.62Z" fill="#263238"/>
<path d="M298.81 124.05C297.089 124.064 295.372 123.887 293.69 123.52C293.624 123.505 293.562 123.477 293.507 123.438C293.453 123.399 293.406 123.349 293.37 123.292C293.334 123.235 293.31 123.172 293.299 123.105C293.288 123.039 293.29 122.971 293.305 122.905C293.32 122.839 293.348 122.777 293.387 122.723C293.426 122.668 293.476 122.621 293.533 122.585C293.59 122.549 293.654 122.525 293.72 122.514C293.786 122.503 293.854 122.505 293.92 122.52C298.83 123.69 306.77 122.91 309.64 120.16C309.687 120.113 309.742 120.076 309.803 120.051C309.864 120.025 309.929 120.012 309.995 120.012C310.061 120.012 310.126 120.025 310.187 120.051C310.248 120.076 310.304 120.113 310.35 120.16C310.397 120.206 310.434 120.26 310.459 120.32C310.484 120.38 310.497 120.445 310.497 120.51C310.497 120.575 310.484 120.64 310.459 120.7C310.434 120.76 310.397 120.814 310.35 120.86C308.14 123 303.29 124.05 298.81 124.05Z" fill="#263238"/>
<path d="M298.6 110C298.36 110.7 297.8 111.15 297.34 111C296.88 110.85 296.71 110.17 296.95 109.47C297.19 108.77 297.76 108.32 298.21 108.47C298.66 108.62 298.84 109.25 298.6 110Z" fill="#263238"/>
<path d="M290 107C289.76 107.7 289.2 108.15 288.74 108C288.28 107.85 288.11 107.17 288.35 106.47C288.59 105.77 289.16 105.32 289.61 105.47C290.06 105.62 290.28 106.3 290 107Z" fill="#263238"/>
<path d="M293.15 109.33C290.99 110.452 288.897 111.697 286.88 113.06C287.38 114.75 290.01 115.35 290.01 115.35L293.15 109.33Z" fill="#FF5652"/>
<path d="M291 118.47C291.79 118.724 292.623 118.817 293.45 118.741C294.277 118.665 295.079 118.424 295.81 118.03C295.86 118.001 295.897 117.953 295.912 117.896C295.927 117.84 295.919 117.78 295.89 117.73C295.859 117.681 295.81 117.647 295.754 117.634C295.698 117.621 295.639 117.63 295.59 117.66C294.777 118.086 293.876 118.314 292.958 118.326C292.041 118.338 291.134 118.134 290.31 117.73C290.258 117.706 290.199 117.702 290.145 117.721C290.091 117.74 290.046 117.779 290.02 117.83C290.006 117.855 289.998 117.882 289.995 117.91C289.992 117.939 289.995 117.967 290.003 117.994C290.011 118.021 290.025 118.046 290.044 118.068C290.062 118.09 290.085 118.107 290.11 118.12C290.399 118.255 290.697 118.372 291 118.47Z" fill="#263238"/>
<path d="M302.8 108.75C302.872 108.77 302.948 108.77 303.02 108.75C303.075 108.733 303.126 108.705 303.17 108.668C303.214 108.631 303.25 108.586 303.276 108.534C303.302 108.483 303.318 108.427 303.322 108.37C303.326 108.312 303.319 108.255 303.3 108.2C303.102 107.549 302.748 106.956 302.269 106.473C301.79 105.991 301.2 105.632 300.55 105.43C300.436 105.403 300.316 105.421 300.215 105.48C300.114 105.54 300.041 105.637 300.01 105.75C299.983 105.86 300 105.976 300.058 106.074C300.116 106.171 300.21 106.242 300.32 106.27C300.833 106.437 301.298 106.727 301.674 107.114C302.05 107.5 302.327 107.973 302.48 108.49C302.507 108.557 302.551 108.615 302.607 108.661C302.663 108.706 302.729 108.737 302.8 108.75Z" fill="#263238"/>
<path d="M288.38 103.12C288.443 103.154 288.513 103.172 288.585 103.172C288.657 103.172 288.727 103.154 288.79 103.12C289.262 102.847 289.791 102.689 290.336 102.662C290.88 102.634 291.423 102.736 291.92 102.96C292.022 103.013 292.142 103.024 292.252 102.991C292.362 102.957 292.455 102.881 292.51 102.78C292.54 102.732 292.559 102.678 292.567 102.622C292.575 102.566 292.572 102.509 292.557 102.455C292.542 102.401 292.516 102.35 292.48 102.306C292.445 102.262 292.4 102.226 292.35 102.2C291.721 101.899 291.027 101.756 290.33 101.783C289.633 101.811 288.953 102.009 288.35 102.36C288.281 102.397 288.223 102.451 288.183 102.518C288.143 102.585 288.121 102.662 288.121 102.74C288.121 102.818 288.143 102.895 288.183 102.962C288.223 103.029 288.281 103.083 288.35 103.12H288.38Z" fill="#263238"/>
<path d="M233.48 115L226.55 109L235.69 102.77C235.69 102.77 241.31 109.03 238.55 112.67L233.48 115Z" fill="#FF8B7B"/>
<path d="M225.74 99.2299L229.29 97.5899C229.976 97.2789 230.751 97.227 231.472 97.444C232.192 97.661 232.81 98.1321 233.21 98.7699L235.69 102.7L226.55 108.93L224.14 103.59C223.778 102.799 223.744 101.897 224.043 101.081C224.343 100.264 224.953 99.5992 225.74 99.2299Z" fill="#FF8B7B"/>
<path d="M274.09 156.5C273.716 155.693 273.186 154.967 272.53 154.365C271.875 153.763 271.107 153.297 270.27 152.993C269.434 152.689 268.545 152.553 267.656 152.594C266.767 152.635 265.895 152.851 265.09 153.23L264.78 153.37L263.26 154.08L261.61 154.83C260.49 155.31 259.36 155.83 258.22 156.26C255.95 157.26 253.64 158.05 251.32 158.86C249 159.67 246.65 160.38 244.32 161.01C242.26 161.57 240.19 162.01 238.11 162.41C236.31 161.95 234.41 161.34 232.51 160.65C230.12 159.78 227.69 158.77 225.27 157.71C222.85 156.65 220.41 155.53 217.98 154.39L210.69 150.92H210.62C209.888 150.577 209.056 150.507 208.277 150.725C207.498 150.942 206.822 151.431 206.374 152.104C205.925 152.777 205.732 153.589 205.83 154.392C205.929 155.195 206.312 155.936 206.91 156.48C209.05 158.41 211.23 160.13 213.48 161.84C215.73 163.55 218.05 165.15 220.48 166.69C222.898 168.262 225.395 169.711 227.96 171.03C230.675 172.45 233.505 173.638 236.42 174.58C237.01 174.755 237.627 174.819 238.24 174.77H238.66C241.509 174.566 244.343 174.199 247.15 173.67C248.56 173.43 249.92 173.1 251.31 172.8C252.7 172.5 254.04 172.11 255.39 171.7C258.1 170.93 260.75 170.01 263.39 168.98C264.69 168.46 266 167.98 267.28 167.33C267.92 167.03 268.57 166.74 269.21 166.42C269.85 166.1 270.45 165.79 271.21 165.36C272.735 164.534 273.884 163.154 274.42 161.505C274.956 159.856 274.838 158.064 274.09 156.5Z" fill="#FF8B7B"/>
<path d="M273.41 148C265.192 150.866 257.174 154.277 249.41 158.21C251.406 165.042 255.133 171.242 260.23 176.21C260.23 176.21 264.56 175.99 273.35 169.35C283.19 162 283.41 144.74 273.41 148Z" fill="#7E57C2"/>
<path d="M208.85 157.39L199.92 156.53L203.63 146.39C203.63 146.39 211.63 148.17 211.52 152.63L208.85 157.39Z" fill="#FF8B7B"/>
<path d="M193.76 149.29L195.65 145.98C196.012 145.339 196.597 144.853 197.294 144.615C197.991 144.377 198.751 144.404 199.43 144.69L203.63 146.39L199.92 156.53L195 153.66C194.26 153.242 193.714 152.548 193.482 151.73C193.25 150.912 193.35 150.035 193.76 149.29Z" fill="#FF8B7B"/>
<path d="M408.9 241.5H91.1C90.4158 241.5 89.7596 241.228 89.2757 240.744C88.7919 240.261 88.52 239.604 88.52 238.92C88.5187 238.58 88.5845 238.244 88.7136 237.93C88.8426 237.616 89.0325 237.33 89.2722 237.089C89.5119 236.849 89.7967 236.658 90.1104 236.527C90.4241 236.397 90.7604 236.33 91.1 236.33H408.9C409.24 236.33 409.576 236.397 409.89 236.527C410.203 236.658 410.488 236.849 410.728 237.089C410.968 237.33 411.157 237.616 411.287 237.93C411.416 238.244 411.481 238.58 411.48 238.92C411.48 239.604 411.208 240.261 410.724 240.744C410.241 241.228 409.584 241.5 408.9 241.5Z" fill="#7E57C2"/>
<path d="M353.73 217.17H341.2C340.471 217.17 339.88 217.761 339.88 218.49V235.02C339.88 235.749 340.471 236.34 341.2 236.34H353.73C354.459 236.34 355.05 235.749 355.05 235.02V218.49C355.05 217.761 354.459 217.17 353.73 217.17Z" fill="#7E57C2"/>
<path d="M355.05 233.63C353.689 233.632 352.358 233.23 351.225 232.475C350.092 231.721 349.209 230.647 348.687 229.39C348.164 228.133 348.027 226.749 348.291 225.414C348.555 224.079 349.21 222.852 350.172 221.889C351.133 220.926 352.359 220.269 353.694 220.003C355.029 219.737 356.413 219.872 357.671 220.393C358.928 220.913 360.003 221.795 360.76 222.927C361.516 224.058 361.92 225.389 361.92 226.75C361.917 228.572 361.193 230.319 359.906 231.609C358.618 232.898 356.872 233.625 355.05 233.63ZM355.05 221.88C354.084 221.878 353.139 222.163 352.335 222.698C351.531 223.234 350.904 223.996 350.533 224.888C350.163 225.78 350.065 226.762 350.253 227.71C350.441 228.657 350.906 229.528 351.589 230.211C352.272 230.894 353.143 231.359 354.09 231.547C355.038 231.735 356.02 231.637 356.912 231.267C357.804 230.896 358.566 230.269 359.102 229.465C359.637 228.661 359.922 227.716 359.92 226.75C359.917 225.459 359.403 224.222 358.491 223.309C357.578 222.397 356.341 221.883 355.05 221.88Z" fill="#7E57C2"/>
<path opacity="0.3" d="M408.9 241.5H320.57C319.885 241.5 319.228 241.229 318.742 240.745C318.257 240.261 317.983 239.605 317.98 238.92C317.98 238.233 318.253 237.574 318.739 237.089C319.224 236.603 319.883 236.33 320.57 236.33H408.9C409.24 236.33 409.576 236.397 409.89 236.527C410.203 236.658 410.488 236.849 410.728 237.089C410.968 237.33 411.158 237.616 411.287 237.93C411.416 238.244 411.481 238.58 411.48 238.92C411.48 239.604 411.208 240.261 410.724 240.744C410.241 241.228 409.584 241.5 408.9 241.5Z" fill="black"/>
<path d="M369.61 241.5H359.86V319.5H369.61V241.5Z" fill="#263238"/>
<path d="M379.47 241.5H398.07V243.36C398.07 243.928 397.845 244.472 397.443 244.873C397.042 245.275 396.498 245.5 395.93 245.5H381.61C381.042 245.5 380.498 245.275 380.097 244.873C379.695 244.472 379.47 243.928 379.47 243.36V241.5Z" fill="#263238"/>
<path d="M372.02 300.17H357.45V378.17H372.02V300.17Z" fill="#263238"/>
<path d="M374.47 348.24H355V426.24H374.47V348.24Z" fill="#263238"/>
<path d="M385.79 426.24H343.68C343.68 425.086 344.138 423.98 344.954 423.164C345.77 422.348 346.876 421.89 348.03 421.89H381.44C382.594 421.89 383.7 422.348 384.516 423.164C385.332 423.98 385.79 425.086 385.79 426.24Z" fill="#263238"/>
<path d="M140.14 241.5H130.39V319.5H140.14V241.5Z" fill="#263238"/>
<path d="M142.55 300.17H127.98V378.17H142.55V300.17Z" fill="#263238"/>
<path d="M145 348.24H125.53V426.24H145V348.24Z" fill="#263238"/>
<path d="M156.32 426.24H114.21C114.21 425.086 114.668 423.98 115.484 423.164C116.3 422.348 117.406 421.89 118.56 421.89H152C153.154 421.89 154.26 422.348 155.076 423.164C155.892 423.98 156.35 425.086 156.35 426.24H156.32Z" fill="#263238"/>
<path d="M256.27 233.22H136.49C136.078 233.223 135.684 233.388 135.393 233.68C135.103 233.973 134.94 234.368 134.94 234.78C134.943 235.19 135.107 235.583 135.397 235.873C135.687 236.163 136.08 236.327 136.49 236.33H256.27C256.682 236.33 257.077 236.167 257.37 235.877C257.662 235.586 257.827 235.192 257.83 234.78C257.83 234.366 257.666 233.969 257.373 233.677C257.081 233.384 256.684 233.22 256.27 233.22Z" fill="#7E57C2"/>
<path opacity="0.3" d="M256.27 233.22H136.49C136.078 233.223 135.684 233.388 135.393 233.68C135.103 233.973 134.94 234.368 134.94 234.78C134.943 235.19 135.107 235.583 135.397 235.873C135.687 236.163 136.08 236.327 136.49 236.33H256.27C256.682 236.33 257.077 236.167 257.37 235.877C257.662 235.586 257.827 235.192 257.83 234.78C257.83 234.366 257.666 233.969 257.373 233.677C257.081 233.384 256.684 233.22 256.27 233.22Z" fill="black"/>
<path d="M214.45 177.37H129.45C128.891 177.357 128.335 177.468 127.824 177.696C127.313 177.924 126.859 178.262 126.496 178.688C126.132 179.113 125.867 179.613 125.721 180.153C125.575 180.694 125.55 181.259 125.65 181.81L132.65 230.34C132.855 231.552 133.472 232.657 134.398 233.466C135.324 234.275 136.501 234.739 137.73 234.78H222.73C223.289 234.793 223.845 234.682 224.356 234.454C224.867 234.226 225.321 233.888 225.684 233.462C226.048 233.037 226.313 232.537 226.459 231.997C226.605 231.456 226.63 230.891 226.53 230.34L219.53 181.81C219.325 180.598 218.708 179.493 217.782 178.684C216.856 177.875 215.679 177.41 214.45 177.37Z" fill="#7E57C2"/>
<path opacity="0.2" d="M188.08 184.07C188.476 183.394 188.687 182.625 188.691 181.841C188.695 181.058 188.491 180.287 188.102 179.607C187.712 178.927 187.15 178.362 186.472 177.97C185.793 177.577 185.024 177.37 184.24 177.37H129.45C128.891 177.357 128.335 177.468 127.824 177.696C127.313 177.924 126.859 178.262 126.496 178.688C126.132 179.113 125.867 179.613 125.721 180.153C125.575 180.694 125.55 181.259 125.65 181.81L132.65 230.34C132.855 231.552 133.472 232.657 134.398 233.466C135.324 234.275 136.501 234.739 137.73 234.78H153.53C155.017 234.779 156.478 234.389 157.767 233.649C159.056 232.908 160.13 231.844 160.88 230.56L188.08 184.07Z" fill="white"/>
</svg>
