<svg width="500" height="496" viewBox="0 0 500 496" fill="none" xmlns="http://www.w3.org/2000/svg">
<g opacity="0.4">
<path d="M43.28 157.351C45.5054 154.776 48.0681 152.507 50.9 150.605L49.82 141.271L64.6 136.132L69.6 144.068C73.0102 143.807 76.4404 143.997 79.8 144.634L85.68 137.283L99.82 143.999L97.7 153.145C100.299 155.349 102.589 157.888 104.51 160.694L113.91 159.623L119.09 174.285L111.09 179.245C111.357 182.624 111.169 186.023 110.53 189.353L117.94 195.196L111.15 209.193L101.93 207.1C99.7075 209.678 97.1444 211.947 94.31 213.845L95.39 223.18L80.61 228.319L75.61 220.383C72.2031 220.644 68.7763 220.454 65.42 219.817L59.54 227.168L45.37 220.482L47.49 211.336C44.8908 209.132 42.6005 206.593 40.68 203.787L31.28 204.858L26.1 190.196L34.1 185.236C33.8276 181.857 34.016 178.457 34.66 175.128L27.25 169.285L34.04 155.288L43.26 157.381L43.28 157.351ZM53.55 173.173C51.7379 176.909 51.0834 181.094 51.669 185.199C52.2547 189.304 54.0543 193.144 56.8402 196.235C59.6262 199.325 63.2733 201.526 67.3205 202.56C71.3676 203.594 75.633 203.415 79.5771 202.044C83.5213 200.673 86.9671 198.173 89.4788 194.859C91.9904 191.546 93.4552 187.568 93.6878 183.428C93.9204 179.289 92.9103 175.174 90.7854 171.604C88.6605 168.034 85.5161 165.17 81.75 163.373C76.6998 160.966 70.893 160.646 65.6053 162.484C60.3176 164.321 55.9816 168.166 53.55 173.173Z" fill="#EBEBEB"/>
<path d="M401.09 302.243C403.282 299.707 405.804 297.472 408.59 295.596L407.53 286.4L422.1 281.331L427.05 289.178C430.409 288.915 433.789 289.098 437.1 289.724L442.9 282.482L456.81 289.119L454.73 298.136C457.286 300.31 459.539 302.812 461.43 305.576L470.7 304.524L475.81 318.978L467.9 323.888C468.165 327.221 467.98 330.574 467.35 333.858L474.65 339.611L468 353.41L458.87 351.327C456.678 353.862 454.156 356.097 451.37 357.973L452.43 367.169L437.86 372.238L432.91 364.391C429.55 364.655 426.17 364.471 422.86 363.846L417.06 371.087L403.15 364.451L405.23 355.434C402.674 353.259 400.421 350.757 398.53 347.994L389.26 349.045L384.15 334.592L392.06 329.681C391.795 326.349 391.98 322.996 392.61 319.712L385.31 313.958L392 300.179L401.09 302.243ZM411.21 317.837C409.423 321.52 408.777 325.646 409.354 329.693C409.931 333.74 411.705 337.527 414.451 340.574C417.198 343.621 420.794 345.791 424.784 346.81C428.774 347.83 432.98 347.652 436.868 346.3C440.757 344.948 444.154 342.482 446.629 339.215C449.105 335.948 450.548 332.025 450.776 327.944C451.005 323.863 450.008 319.806 447.911 316.287C445.815 312.768 442.714 309.945 439 308.175C434.022 305.805 428.3 305.492 423.09 307.303C417.88 309.115 413.607 312.903 411.21 317.837Z" fill="#E0E0E0"/>
<path d="M393 163.581C394.692 161.617 396.643 159.889 398.8 158.442L397.98 151.33L409.25 147.411L413.08 153.472C415.678 153.273 418.29 153.417 420.85 153.899L425.34 148.294L436.1 153.433L434.48 160.377C436.462 162.055 438.208 163.99 439.67 166.13L446.84 165.317L450.79 176.497L444.67 180.296C444.876 182.873 444.731 185.465 444.24 188.004L449.89 192.458L444.72 203.132L437.72 201.525C436.024 203.491 434.07 205.223 431.91 206.673L432.74 213.786L421.47 217.754L417.64 211.693C415.042 211.894 412.428 211.747 409.87 211.256L405.38 216.861L394.62 211.733L396.23 204.789C394.253 203.107 392.511 201.173 391.05 199.035L383.88 199.848L379.92 188.639L386.03 184.839C385.829 182.263 385.974 179.671 386.46 177.132L380.81 172.677L386 161.984L393 163.581ZM400.83 175.644C399.447 178.492 398.947 181.683 399.392 184.813C399.838 187.944 401.209 190.873 403.333 193.23C405.457 195.587 408.238 197.266 411.325 198.055C414.411 198.843 417.663 198.706 420.671 197.661C423.679 196.616 426.306 194.709 428.221 192.181C430.136 189.654 431.253 186.621 431.429 183.464C431.606 180.307 430.834 177.17 429.213 174.448C427.591 171.726 425.193 169.543 422.32 168.174C418.473 166.346 414.053 166.106 410.028 167.506C406.004 168.906 402.703 171.833 400.85 175.644H400.83Z" fill="#EBEBEB"/>
<path d="M364.59 111.917C365.727 110.595 367.039 109.431 368.49 108.455L367.94 103.674L375.51 101.045L378.09 105.122C379.835 104.981 381.591 105.078 383.31 105.41L386.31 101.64L393.54 105.093L392.46 109.775C393.788 110.908 394.961 112.209 395.95 113.644L400.76 113.098L403.42 120.607L399.32 123.167C399.452 124.898 399.355 126.639 399.03 128.345L402.83 131.321L399.35 138.493L394.62 137.412C393.485 138.737 392.173 139.901 390.72 140.874L391.28 145.655L383.71 148.284L381.13 144.207C379.385 144.344 377.629 144.247 375.91 143.919L372.91 147.689L365.68 144.237L366.77 139.555C365.439 138.424 364.266 137.123 363.28 135.686L358.46 136.231L355.81 128.722L359.9 126.143C359.757 124.412 359.855 122.669 360.19 120.965L356.39 117.989L359.87 110.816L364.59 111.898V111.917ZM369.85 120.022C368.923 121.935 368.589 124.078 368.889 126.179C369.19 128.28 370.111 130.246 371.538 131.828C372.964 133.41 374.832 134.536 376.903 135.066C378.975 135.595 381.159 135.503 383.178 134.802C385.197 134.1 386.962 132.821 388.248 131.125C389.534 129.429 390.285 127.393 390.405 125.274C390.525 123.155 390.009 121.048 388.923 119.22C387.836 117.392 386.227 115.924 384.3 115.003C383.019 114.39 381.629 114.034 380.209 113.955C378.79 113.876 377.368 114.075 376.026 114.541C374.684 115.007 373.448 115.731 372.388 116.672C371.328 117.612 370.466 118.751 369.85 120.022Z" fill="#F5F5F5"/>
<path d="M101.26 372.228C102.402 370.911 103.714 369.747 105.16 368.766L104.61 363.985L112.18 361.356L114.76 365.433C116.505 365.302 118.26 365.399 119.98 365.721L122.98 361.951L130.21 365.403L129.12 370.095C130.455 371.221 131.63 372.523 132.61 373.964L137.43 373.409L140.08 380.918L136 383.477C136.143 385.209 136.045 386.951 135.71 388.656L139.51 391.632L136 398.824L131.28 397.742C130.14 399.063 128.829 400.227 127.38 401.204L127.93 405.986L120.36 408.615L117.78 404.538C116.035 404.679 114.279 404.582 112.56 404.25L109.56 408.02L102.32 404.567L103.41 399.885C102.077 398.757 100.903 397.455 99.92 396.016L95.1 396.562L92.46 389.023L96.57 386.463C96.4325 384.732 96.53 382.991 96.86 381.285L93.06 378.309L96.54 371.167L101.26 372.238V372.228ZM106.53 380.333C105.605 382.245 105.273 384.387 105.574 386.487C105.875 388.587 106.797 390.552 108.223 392.132C109.649 393.713 111.515 394.839 113.586 395.368C115.657 395.898 117.839 395.806 119.857 395.106C121.876 394.406 123.64 393.128 124.927 391.434C126.214 389.74 126.966 387.706 127.088 385.588C127.21 383.47 126.697 381.364 125.614 379.535C124.53 377.707 122.925 376.237 121 375.313C119.718 374.698 118.326 374.339 116.904 374.259C115.483 374.178 114.059 374.376 112.714 374.843C111.37 375.309 110.132 376.034 109.07 376.976C108.009 377.918 107.146 379.059 106.53 380.333Z" fill="#F5F5F5"/>
<path d="M158.58 398.318C160.298 396.334 162.272 394.583 164.45 393.11L163.62 385.918L175.02 381.95L178.9 388.09C181.527 387.886 184.171 388.03 186.76 388.517L191.3 382.853L202.19 388.031L200.56 395.094C202.565 396.793 204.33 398.752 205.81 400.917L213.06 400.094L217.06 411.402L210.87 415.251C211.072 417.858 210.924 420.48 210.43 423.048L216.15 427.552L210.91 438.355L203.8 436.728C202.089 438.719 200.115 440.471 197.93 441.936L198.76 449.138L187.36 453.106L183.48 446.975C180.852 447.176 178.209 447.029 175.62 446.539L171.08 452.213L160.19 447.015L161.82 439.962C159.82 438.254 158.055 436.293 156.57 434.129L149.32 434.962L145.32 423.654L151.51 419.805C151.308 417.194 151.456 414.569 151.95 411.998L146.23 407.504L151.47 396.701L158.58 398.318ZM166.5 410.519C165.101 413.401 164.596 416.63 165.047 419.797C165.499 422.964 166.887 425.927 169.036 428.311C171.185 430.695 173.998 432.394 177.12 433.191C180.243 433.989 183.533 433.851 186.576 432.793C189.619 431.736 192.277 429.807 194.215 427.25C196.153 424.694 197.282 421.625 197.462 418.432C197.641 415.238 196.861 412.064 195.221 409.31C193.582 406.556 191.156 404.346 188.25 402.96C184.355 401.103 179.876 400.855 175.797 402.273C171.719 403.69 168.374 406.657 166.5 410.519Z" fill="#EBEBEB"/>
<path d="M87.0499 243.129C86.827 243.234 86.5918 243.31 86.3499 243.358C85.8799 243.477 85.1999 243.685 84.2899 243.873C81.7517 244.435 79.1744 244.807 76.5799 244.984C67.9701 245.626 59.3286 244.255 51.3499 240.981C43.3713 237.708 36.2779 232.623 30.6399 226.136C28.9382 224.185 27.3872 222.109 25.9999 219.926C25.4899 219.163 25.1599 218.528 24.9099 218.121C24.7768 217.913 24.663 217.694 24.5699 217.466C24.7359 217.648 24.8802 217.847 24.9999 218.062C25.2799 218.458 25.6399 219.054 26.1699 219.817C31.6471 227.968 39.1864 234.549 48.0332 238.902C56.88 243.254 66.724 245.225 76.5799 244.617C79.1623 244.453 81.7311 244.122 84.2699 243.625C85.1799 243.477 85.8699 243.288 86.3399 243.199C86.5744 243.157 86.8118 243.134 87.0499 243.129Z" fill="#E0E0E0"/>
<path d="M67.31 250.351C66.951 250.389 66.589 250.389 66.23 250.351C65.54 250.351 64.54 250.282 63.31 250.143C60.1029 249.805 56.9394 249.141 53.87 248.159C50.8054 247.161 47.8504 245.858 45.05 244.27C43.98 243.655 43.13 243.119 42.57 242.723C42.2624 242.537 41.9772 242.318 41.72 242.068C41.77 241.988 43.06 242.802 45.23 243.943C48.0401 245.428 50.9744 246.669 54 247.653C57.0397 248.633 60.1575 249.356 63.32 249.815C65.79 250.143 67.31 250.262 67.31 250.351Z" fill="#E0E0E0"/>
<path d="M184.43 143.542C194.052 137.779 204.407 133.315 215.22 130.27L221.56 100.033L273.06 99.1306L280.47 129.129C291.388 131.794 301.897 135.894 311.72 141.32L337.72 124.397L374.78 159.891L358.65 186.278C364.458 195.828 368.958 206.102 372.03 216.831L402.5 223.131L403.41 274.209L373.17 281.569C370.482 292.396 366.349 302.818 360.88 312.559L377.94 338.351L342.17 375.105L315.58 359.104C305.953 364.866 295.596 369.33 284.78 372.377L278.44 402.613L226.94 403.506L219.53 373.508C208.611 370.847 198.101 366.747 188.28 361.316L162.28 378.24L125.2 342.786L141.34 316.389C135.54 306.84 131.053 296.564 128 285.835L97.4701 279.546L96.5701 228.458L126.81 221.107C129.497 210.28 133.63 199.858 139.1 190.117L122.04 164.325L157.81 127.571L184.43 143.572V143.542ZM200 203.469C190.458 213.276 184.062 225.669 181.621 239.081C179.179 252.494 180.801 266.323 186.282 278.821C191.764 291.319 200.857 301.924 212.414 309.295C223.971 316.666 237.471 320.472 251.208 320.232C264.945 319.992 278.302 315.717 289.59 307.946C300.878 300.176 309.59 289.26 314.624 276.579C319.658 263.897 320.788 250.02 317.872 236.701C314.956 223.382 308.124 211.22 298.24 201.753C291.676 195.466 283.929 190.523 275.439 187.207C266.949 183.89 257.884 182.265 248.762 182.425C239.639 182.584 230.637 184.525 222.271 188.136C213.904 191.746 206.337 196.957 200 203.469Z" fill="#EBEBEB"/>
<path d="M200 203.469C200 203.469 201 202.348 203.15 200.374C208.527 195.432 214.677 191.389 221.36 188.401C224.683 186.894 228.124 185.66 231.65 184.71C240.269 182.386 249.256 181.712 258.13 182.726C268.909 183.973 279.242 187.71 288.3 193.638C295.965 198.671 302.571 205.133 307.75 212.665C309.558 215.329 311.185 218.109 312.62 220.988C318.679 233.29 320.927 247.099 319.08 260.668C318.603 264.207 317.844 267.703 316.81 271.124C315.791 274.607 314.476 277.998 312.88 281.262C306.373 294.737 295.646 305.762 282.3 312.688C279.066 314.384 275.694 315.808 272.22 316.944C268.811 318.086 265.317 318.962 261.77 319.563C248.164 321.887 234.169 320.161 221.55 314.603C218.604 313.276 215.748 311.762 213 310.069C205.231 305.196 198.489 298.872 193.15 291.45C186.876 282.672 182.766 272.557 181.15 261.918C179.82 253.157 180.186 244.225 182.23 235.6C183.061 232.043 184.185 228.559 185.59 225.184C186.739 222.368 188.076 219.631 189.59 216.99C191.732 213.34 194.213 209.896 197 206.703C198.92 204.531 200 203.469 200 203.469L199.25 204.302C198.77 204.868 197.98 205.642 197.07 206.763C194.342 209.98 191.909 213.433 189.8 217.079C188.284 219.716 186.948 222.45 185.8 225.263C184.422 228.605 183.318 232.052 182.5 235.57C180.491 244.157 180.152 253.046 181.5 261.759C183.14 272.334 187.249 282.383 193.5 291.102C196.974 295.94 201.065 300.311 205.67 304.108C208.072 306.094 210.604 307.92 213.25 309.573C215.982 311.253 218.821 312.754 221.75 314.067C237.637 321.071 255.593 321.921 272.08 316.448C275.526 315.314 278.871 313.897 282.08 312.212C295.325 305.333 305.971 294.389 312.43 281.014C314.018 277.777 315.326 274.412 316.34 270.955C317.364 267.56 318.116 264.091 318.59 260.579C320.427 247.108 318.207 233.399 312.21 221.176C310.784 218.32 309.171 215.559 307.38 212.913C305.628 210.341 303.701 207.892 301.61 205.582C297.624 201.15 293.076 197.249 288.08 193.976C279.074 188.069 268.801 184.332 258.08 183.064C249.254 182.04 240.312 182.69 231.73 184.978C228.211 185.907 224.776 187.125 221.46 188.619C214.786 191.571 208.629 195.559 203.22 200.434C202.12 201.376 201.37 202.189 200.82 202.685L200 203.469Z" fill="#263238"/>
<path d="M184.43 143.542L157.77 127.611H157.87C148.78 136.985 136.73 149.385 122.14 164.404V164.245L139.22 190.037L139.27 190.117L139.22 190.196C133.787 199.932 129.677 210.34 127 221.147V221.246H126.9L96.67 228.606L96.81 228.428C97.1 244.508 97.41 261.58 97.73 279.516L97.57 279.317L128 285.627H128.12V285.746C131.192 296.454 135.688 306.709 141.49 316.24L141.56 316.359L141.49 316.478L125.4 342.905V342.617L162.46 378.101H162.16L188.16 361.177L188.28 361.088L188.41 361.167C198.219 366.57 208.707 370.66 219.6 373.329H219.75V373.468C222.08 382.872 224.61 393.12 227.17 403.466L226.92 403.278L278.41 402.375L278.16 402.583C280.16 393.03 282.33 382.743 284.51 372.347V372.189H284.66C295.443 369.147 305.77 364.697 315.37 358.955L315.51 358.866L315.64 358.955L342.25 374.956H341.93L377.7 338.203V338.52L360.65 312.728L360.56 312.599L360.64 312.46C366.131 302.735 370.288 292.327 373 281.51V281.361H373.15L403.39 274.01L403.2 274.258C402.893 256.819 402.593 239.79 402.3 223.17L402.49 223.398L372 217.06H371.86V216.931C368.802 206.217 364.313 195.958 358.51 186.427L358.44 186.308L358.51 186.198L374.65 159.811V160.069L337.65 124.575H337.89L311.89 141.489L311.8 141.549L311.7 141.499C301.893 136.076 291.4 131.976 280.5 129.307H280.4V129.208C277.72 118.296 275.3 108.485 273.01 99.2099L273.16 99.329L221.66 100.182L221.78 100.093C219.22 112.205 217.13 122.115 215.4 130.319C207.267 132.597 199.384 135.677 191.87 139.515C189.39 140.775 187.58 141.806 186.38 142.491C185.18 143.175 184.59 143.483 184.59 143.483L186.36 142.421C187.55 141.727 189.36 140.685 191.83 139.445C199.335 135.565 207.219 132.454 215.36 130.16L215.3 130.22C217.01 122.006 219.08 112.096 221.61 99.9738V99.8845H221.7L273.2 98.952H273.32V99.0711C275.61 108.336 278.05 118.157 280.75 129.059L280.62 128.93C291.553 131.602 302.079 135.705 311.92 141.132H311.73C320 135.735 328.59 130.15 337.73 124.198L337.87 124.109L337.98 124.218L375 159.712L375.12 159.831L375.03 159.98L358.86 186.397V186.169C364.684 195.732 369.194 206.024 372.27 216.772L372.09 216.613L402.57 222.893H402.76V223.081C403.06 239.687 403.367 256.716 403.68 274.169V274.367H403.49L373.25 281.728L373.44 281.549C370.746 292.398 366.603 302.84 361.12 312.599V312.341C366.747 320.859 372.433 329.456 378.18 338.133L378.3 338.302L378.15 338.451L342.38 375.155L342.24 375.303L342.06 375.194L315.45 359.193H315.72C306.082 364.957 295.715 369.424 284.89 372.476L285.08 372.278C282.9 382.664 280.73 392.971 278.73 402.514V402.712H278.52L227.03 403.605H226.82L226.77 403.407C224.22 393.06 221.68 382.813 219.36 373.409L219.55 373.597C208.614 370.916 198.086 366.806 188.24 361.376H188.5L162.5 378.299L162.34 378.398L162.2 378.269L125.2 342.766L125.07 342.647L125.17 342.488L141.3 316.091V316.329C135.485 306.76 130.982 296.465 127.91 285.716L128.07 285.865L97.43 279.744H97.27V279.575C96.96 261.65 96.66 244.578 96.39 228.497V228.349H96.54L126.78 221.008L126.65 221.137C129.357 210.272 133.51 199.814 139 190.037V190.196L122 164.404L121.94 164.315L122.02 164.245L157.82 127.541H157.87H157.93L184.43 143.542Z" fill="#263238"/>
</g>
</svg>
