<?xml version="1.0" encoding="UTF-8" standalone="no"?>
<!-- Created with Inkscape (http://www.inkscape.org/) -->

<svg
   version="1.1"
   id="svg413"
   width="800"
   height="800"
   viewBox="0 0 800 800"
   sodipodi:docname="camouflage-publicdomainvectors.org.svg"
   inkscape:version="1.2 (dc2aedaf03, 2022-05-15)"
   xmlns:inkscape="http://www.inkscape.org/namespaces/inkscape"
   xmlns:sodipodi="http://sodipodi.sourceforge.net/DTD/sodipodi-0.dtd"
   xmlns="http://www.w3.org/2000/svg"
   xmlns:svg="http://www.w3.org/2000/svg">
  <defs
     id="defs417">
    <clipPath
       clipPathUnits="userSpaceOnUse"
       id="clipPath431">
      <path
         d="M 0,600 H 600 V 0 H 0 Z"
         id="path429" />
    </clipPath>
  </defs>
  <sodipodi:namedview
     id="namedview415"
     pagecolor="#ffffff"
     bordercolor="#000000"
     borderopacity="0.25"
     inkscape:showpageshadow="2"
     inkscape:pageopacity="0.0"
     inkscape:pagecheckerboard="0"
     inkscape:deskcolor="#d1d1d1"
     showgrid="false"
     inkscape:zoom="1.04625"
     inkscape:cx="399.5221"
     inkscape:cy="324.01434"
     inkscape:window-width="1920"
     inkscape:window-height="1017"
     inkscape:window-x="-8"
     inkscape:window-y="-8"
     inkscape:window-maximized="1"
     inkscape:current-layer="g421">
    <inkscape:page
       x="0"
       y="0"
       id="page419"
       width="800"
       height="800" />
  </sodipodi:namedview>
  <g
     id="g421"
     inkscape:groupmode="layer"
     inkscape:label="Page 1"
     transform="matrix(1.3333333,0,0,-1.3333333,0,800)">
    <path
       d="M 0,0 H 600 V 600 H 0 Z"
       style="fill:#252818;fill-opacity:1;fill-rule:nonzero;stroke:none"
       id="path423" />
    <g
       id="g425">
      <g
         id="g427"
         clip-path="url(#clipPath431)">
        <g
           id="g433"
           transform="translate(19.2896,491.5562)">
          <path
             d="m 0,0 h 268.409 c 14.911,0 14.911,-22.542 0,-22.542 h -86.602 c -14.911,0 -14.911,-22.54 0,-22.54 h 21.354 c 14.908,0 14.908,-22.539 0,-22.539 h -88.382 c -14.91,0 -14.911,-22.542 0,-22.542 h 88.382 c 14.908,0 14.908,-22.54 0,-22.54 H -19.288 v 22.54 H 60.8 c 14.809,0 14.809,22.542 0,22.542 h -80.088 v 22.539 H 23.43 c 14.91,0 14.909,22.54 0,22.54 H 0 C -14.91,-22.542 -14.91,0 0,0"
             style="fill:#5f7d29;fill-opacity:1;fill-rule:evenodd;stroke:none"
             id="path435" />
        </g>
        <g
           id="g437"
           transform="translate(0.0015,356.3135)">
          <path
             d="m 0,0 h 66.954 c 14.908,0 14.908,-22.54 0,-22.54 H 11.196 c -14.91,0 -14.91,-22.541 0,-22.541 H 40.26 c 14.91,0 14.91,-22.54 0,-22.54 l -40.26,0 z"
             style="fill:#5f7d29;fill-opacity:1;fill-rule:evenodd;stroke:none"
             id="path439" />
        </g>
        <g
           id="g441"
           transform="translate(308.9307,581.7173)">
          <path
             d="m 0,0 h 191.182 c 14.911,0 14.911,-22.54 0,-22.54 h -55.757 c -14.908,0 -14.911,-22.542 0,-22.542 h 29.064 c 14.911,0 14.908,-22.539 0,-22.539 h -270.776 c -14.911,0 -14.911,22.539 0,22.539 H 58.905 c 14.908,0 14.908,22.542 0,22.542 L 0,-22.54 C -14.911,-22.54 -14.911,0 0,0"
             style="fill:#5f7d29;fill-opacity:1;fill-rule:evenodd;stroke:none"
             id="path443" />
        </g>
        <g
           id="g445"
           transform="translate(0.0015,581.7173)">
          <path
             d="m 0,0 h 77.37 c 14.91,0 14.91,-22.54 0,-22.54 H 49.492 c -14.907,0 -14.91,-22.542 0,-22.542 h 64.474 c 14.91,0 14.906,-22.539 0,-22.539 L 0,-67.621 Z"
             style="fill:#5f7d29;fill-opacity:1;fill-rule:evenodd;stroke:none"
             id="path447" />
        </g>
        <g
           id="g449"
           transform="translate(146.9082,356.3135)">
          <path
             d="m 0,0 h 138.145 c 14.909,0 14.909,-22.54 0,-22.54 H 97.221 c -14.906,0 -14.911,-22.541 0,-22.541 h 19.048 c 14.909,0 14.906,-22.54 0,-22.54 H 8.326 c -14.905,0 -14.911,22.54 0,22.54 h 44.522 c 14.911,0 14.905,22.541 0,22.541 L 0,-22.54 C -14.91,-22.54 -14.91,0 0,0"
             style="fill:#5f7d29;fill-opacity:1;fill-rule:evenodd;stroke:none"
             id="path451" />
        </g>
        <g
           id="g453"
           transform="translate(462.8281,356.3135)">
          <path
             d="m 0,0 h 137.247 v -24.304 c -6.433,-4.207 -6.433,-14.805 0,-19.013 V -67.621 H 114.78 c -14.908,0 -14.912,-22.541 0,-22.541 h 20.362 c 0.737,0 1.438,-0.058 2.105,-0.163 v -22.215 c -0.667,-0.105 -1.368,-0.162 -2.105,-0.162 H -91.219 c -14.908,0 -14.911,22.54 0,22.54 h 152.02 c 14.811,0 14.808,22.541 0,22.541 H 14.99 c -14.912,0 -14.912,22.54 0,22.54 h 83.453 c 14.909,0 14.906,22.541 0,22.541 L 0,-22.54 C -14.908,-22.54 -14.908,0 0,0"
             style="fill:#5f7d29;fill-opacity:1;fill-rule:evenodd;stroke:none"
             id="path455" />
        </g>
        <g
           id="g457"
           transform="translate(348.2627,130.9102)">
          <path
             d="m 0,0 h 251.812 v -22.54 h -67.21 c -14.905,0 -14.908,-22.54 0,-22.54 h 67.21 V -67.623 H 114.78 c -14.908,0 -14.911,-22.54 0,-22.54 h 20.36 c 14.911,0 14.908,-22.539 0,-22.539 H -91.218 c -14.909,0 -14.911,22.539 0,22.539 H 60.801 c 14.808,0 14.808,22.54 0,22.54 H 14.99 c -14.911,0 -14.911,22.543 0,22.543 h 83.45 c 14.912,0 14.909,22.54 0,22.54 L 0,-22.54 C -14.908,-22.54 -14.908,0 0,0"
             style="fill:#5f7d29;fill-opacity:1;fill-rule:evenodd;stroke:none"
             id="path459" />
        </g>
        <g
           id="g461"
           transform="translate(476.96,491.5562)">
          <path
             d="m 0,0 h 123.115 v -22.833 c -11.192,-2.432 -11.195,-19.524 0,-21.957 v -22.831 h -67.04 c -14.908,0 -14.908,-22.542 0,-22.542 h 20.361 c 14.909,0 14.906,-22.54 0,-22.54 H -25.992 c -14.908,0 -14.911,22.54 0,22.54 H 2.096 c 14.811,0 14.807,22.542 0,22.542 H -159.26 c -14.908,0 -14.908,22.539 0,22.539 H 39.738 c 14.908,0 14.905,22.54 0,22.54 L 0,-22.542 C -14.909,-22.542 -14.909,0 0,0"
             style="fill:#5f7d29;fill-opacity:1;fill-rule:evenodd;stroke:none"
             id="path463" />
        </g>
        <g
           id="g465"
           transform="translate(74.0518,266.1523)">
          <path
             d="m 0,0 h 209.706 c 14.909,0 14.909,-22.54 0,-22.54 h -83.808 c -14.908,0 -14.911,-22.541 0,-22.541 h 143.42 c 14.911,0 14.911,-22.54 0,-22.54 H 56.074 c -14.907,0 -14.909,-22.541 0,-22.541 h 20.361 c 14.909,0 14.906,-22.54 0,-22.54 H -25.993 c -14.907,0 -14.91,22.54 0,22.54 H 2.096 c 14.81,0 14.806,22.541 0,22.541 H -74.05 v 22.54 H 39.737 c 14.909,0 14.905,22.541 0,22.541 L 0,-22.54 C -14.91,-22.54 -14.91,0 0,0"
             style="fill:#5f7d29;fill-opacity:1;fill-rule:evenodd;stroke:none"
             id="path467" />
        </g>
        <g
           id="g469"
           transform="translate(455.7393,221.0713)">
          <path
             d="m 0,0 h 132.14 c 6.199,0 11.268,-5.071 11.268,-11.27 0,-6.199 -5.069,-11.27 -11.268,-11.27 H 0 c -6.2,0 -11.272,5.071 -11.272,11.27 C -11.272,-5.071 -6.2,0 0,0"
             style="fill:#5f7d29;fill-opacity:1;fill-rule:evenodd;stroke:none"
             id="path471" />
        </g>
        <g
           id="g473"
           transform="translate(339.2637,356.3135)">
          <path
             d="m 0,0 h 68.775 c 6.2,0 11.272,-5.071 11.272,-11.27 0,-6.198 -5.072,-11.27 -11.272,-11.27 H 0 c -6.2,0 -11.271,5.072 -11.271,11.27 C -11.271,-5.071 -6.2,0 0,0"
             style="fill:#5f7d29;fill-opacity:1;fill-rule:evenodd;stroke:none"
             id="path475" />
        </g>
        <g
           id="g477"
           transform="translate(231.1714,175.9902)">
          <path
             d="m 0,0 h 41.755 c 6.2,0 11.272,-5.072 11.272,-11.271 0,-6.198 -5.072,-11.269 -11.272,-11.269 H 0 c -6.197,0 -11.269,5.071 -11.269,11.269 C -11.269,-5.072 -6.197,0 0,0"
             style="fill:#5f7d29;fill-opacity:1;fill-rule:evenodd;stroke:none"
             id="path479" />
        </g>
        <g
           id="g481"
           transform="translate(375.6045,175.9902)">
          <path
             d="m 0,0 h 103.254 c 6.197,0 11.269,-5.072 11.269,-11.271 0,-6.198 -5.072,-11.269 -11.269,-11.269 H 0 c -6.2,0 -11.271,5.071 -11.271,11.269 C -11.271,-5.072 -6.2,0 0,0"
             style="fill:#5f7d29;fill-opacity:1;fill-rule:evenodd;stroke:none"
             id="path483" />
        </g>
        <g
           id="g485"
           transform="translate(223.6641,85.8271)">
          <path
             d="m 0,0 h -223.663 v -22.54 h 52.828 c 14.91,0 14.91,-22.54 0,-22.54 h -29.064 c -14.91,0 -14.91,-22.539 0,-22.539 h 132.871 c 14.908,0 14.911,22.539 0,22.539 h -27.288 c -14.908,0 -14.908,22.54 0,22.54 H 0 C 14.908,-22.54 14.908,0 0,0"
             style="fill:#5f7d29;fill-opacity:1;fill-rule:evenodd;stroke:none"
             id="path487" />
        </g>
        <g
           id="g489"
           transform="translate(32.6982,130.9102)">
          <path
             d="m 0,0 h 222.523 c 6.197,0 11.269,-5.071 11.269,-11.271 0,-6.201 -5.072,-11.269 -11.269,-11.269 H 0 c -6.198,0 -11.27,5.068 -11.27,11.269 C -11.27,-5.071 -6.198,0 0,0"
             style="fill:#5f7d29;fill-opacity:1;fill-rule:evenodd;stroke:none"
             id="path491" />
        </g>
        <g
           id="g493"
           transform="translate(564.2891,581.7173)">
          <path
             d="M 0,0 H 35.786 V -22.54 H 0 c -6.197,0 -11.269,5.07 -11.269,11.269 v 0.001 C -11.269,-5.072 -6.197,0 0,0"
             style="fill:#5f7d29;fill-opacity:1;fill-rule:evenodd;stroke:none"
             id="path495" />
        </g>
        <g
           id="g497"
           transform="translate(565.0137,74.0068)">
          <path
             d="m 0,0 h -268.41 c -14.908,0 -14.908,22.54 0,22.54 h 86.602 c 14.912,0 14.912,22.54 0,22.54 h -21.354 c -14.908,0 -14.908,22.543 0,22.543 h 88.386 c 14.908,0 14.908,22.54 0,22.54 h -88.386 c -14.908,0 -14.908,22.539 0,22.539 H 23.432 c 14.909,0 14.909,-22.539 0,-22.539 h -84.233 c -14.807,0 -14.807,-22.54 0,-22.54 H 35.062 V 45.08 h -58.494 c -14.908,0 -14.908,-22.54 0,-22.54 L 0,22.54 C 14.909,22.54 14.909,0 0,0"
             style="fill:#9ac421;fill-opacity:1;fill-rule:evenodd;stroke:none"
             id="path499" />
        </g>
        <g
           id="g501"
           transform="translate(600.0752,209.249)">
          <path
             d="m 0,0 h -82.726 c -14.911,0 -14.911,22.54 0,22.54 h 55.757 c 14.908,0 14.912,22.54 0,22.54 h -29.064 c -14.911,0 -14.908,22.541 0,22.541 H 0 Z"
             style="fill:#9ac421;fill-opacity:1;fill-rule:evenodd;stroke:none"
             id="path503" />
        </g>
        <g
           id="g505"
           transform="translate(73.9697,-0.0732)">
          <path
             d="m 0,0 c 1.544,3.64 4.95,6.46 10.221,6.46 h 55.756 c 14.912,0 14.912,22.54 0,22.54 H 36.915 c -14.911,0 -14.909,22.54 0,22.54 h 270.777 c 14.909,0 14.911,-22.54 0,-22.54 H 142.499 c -14.911,0 -14.908,-22.54 0,-22.54 h 58.906 c 5.268,0 8.675,-2.82 10.219,-6.46 z"
             style="fill:#9ac421;fill-opacity:1;fill-rule:evenodd;stroke:none"
             id="path507" />
        </g>
        <g
           id="g509"
           transform="translate(496.7119,-0.0732)">
          <path
             d="m 0,0 c 1.544,3.64 4.95,6.46 10.219,6.46 h 27.879 c 14.908,0 14.911,22.54 0,22.54 h -64.475 c -14.908,0 -14.905,22.54 0,22.54 h 129.74 V 0 Z"
             style="fill:#9ac421;fill-opacity:1;fill-rule:evenodd;stroke:none"
             id="path511" />
        </g>
        <g
           id="g513"
           transform="translate(437.3945,209.249)">
          <path
             d="m 0,0 h -138.145 c -14.909,0 -14.909,22.54 0,22.54 h 40.923 c 14.91,0 14.913,22.54 0,22.54 h -19.045 c -14.912,0 -14.905,22.541 0,22.541 H -8.323 c 14.905,0 14.911,-22.541 0,-22.541 h -44.526 c -14.908,0 -14.905,-22.54 0,-22.54 H 0 C 14.911,22.54 14.911,0 0,0"
             style="fill:#9ac421;fill-opacity:1;fill-rule:evenodd;stroke:none"
             id="path515" />
        </g>
        <g
           id="g517"
           transform="translate(121.4746,209.249)">
          <path
             d="m 0,0 h -121.473 v 67.621 h 6.694 c 14.908,0 14.91,22.542 0,22.542 h -6.694 v 22.54 H 91.221 c 14.905,0 14.908,-22.54 0,-22.54 h -152.02 c -14.81,0 -14.809,-22.542 0,-22.542 h 45.81 c 14.91,0 14.91,-22.541 0,-22.541 H -98.44 c -14.91,0 -14.907,-22.54 0,-22.54 L 0,22.54 C 14.91,22.54 14.91,0 0,0"
             style="fill:#9ac421;fill-opacity:1;fill-rule:evenodd;stroke:none"
             id="path519" />
        </g>
        <g
           id="g521"
           transform="translate(236.0396,434.6528)">
          <path
             d="m 0,0 h -236.038 v 22.541 h 51.436 c 14.907,0 14.911,22.54 0,22.54 h -51.436 v 22.54 h 121.261 c 14.906,0 14.909,22.542 0,22.542 h -20.362 c -14.91,0 -14.909,22.54 0,22.54 h 226.36 c 14.908,0 14.908,-22.54 0,-22.54 H -60.798 c -14.811,0 -14.808,-22.542 0,-22.542 h 45.811 c 14.908,0 14.908,-22.54 0,-22.54 H -98.44 c -14.91,0 -14.907,-22.54 0,-22.54 H 0 C 14.911,22.541 14.911,0 0,0"
             style="fill:#9ac421;fill-opacity:1;fill-rule:evenodd;stroke:none"
             id="path523" />
        </g>
        <g
           id="g525"
           transform="translate(107.3442,74.0068)">
          <path
             d="m 0,0 h -107.343 v 67.623 h 51.268 c 14.907,0 14.91,22.54 0,22.54 h -20.362 c -14.909,0 -14.907,22.539 0,22.539 H 25.992 c 14.906,0 14.91,-22.539 0,-22.539 H -2.097 c -14.81,0 -14.807,-22.54 0,-22.54 h 161.355 c 14.912,0 14.912,-22.543 0,-22.543 H -39.738 c -14.908,0 -14.905,-22.54 0,-22.54 L 0,22.54 C 14.908,22.54 14.908,0 0,0"
             style="fill:#9ac421;fill-opacity:1;fill-rule:evenodd;stroke:none"
             id="path527" />
        </g>
        <g
           id="g529"
           transform="translate(510.252,299.4102)">
          <path
             d="m 0,0 h -209.705 c -14.911,0 -14.911,22.54 0,22.54 h 83.805 c 14.909,0 14.912,22.542 0,22.542 h -143.42 c -14.908,0 -14.908,22.539 0,22.539 h 213.245 c 14.908,0 14.911,22.542 0,22.542 h -20.363 c -14.908,0 -14.904,22.54 0,22.54 h 102.43 c 14.908,0 14.911,-22.54 0,-22.54 H -2.096 c -14.811,0 -14.808,-22.542 0,-22.542 H 89.823 V 45.082 H -39.738 c -14.909,0 -14.906,-22.542 0,-22.542 L 0,22.54 C 14.908,22.54 14.908,0 0,0"
             style="fill:#9ac421;fill-opacity:1;fill-rule:evenodd;stroke:none"
             id="path531" />
        </g>
        <g
           id="g533"
           transform="translate(128.5649,344.4917)">
          <path
             d="M 0,0 H -128.563 V 22.54 H 0 c 6.2,0 11.27,-5.072 11.27,-11.27 V 11.269 C 11.27,5.072 6.2,0 0,0"
             style="fill:#9ac421;fill-opacity:1;fill-rule:evenodd;stroke:none"
             id="path535" />
        </g>
        <g
           id="g537"
           transform="translate(245.042,209.249)">
          <path
             d="m 0,0 h -68.778 c -6.197,0 -11.269,5.071 -11.269,11.271 0,6.198 5.072,11.269 11.269,11.269 H 0 c 6.197,0 11.268,-5.071 11.268,-11.269 C 11.268,5.071 6.197,0 0,0"
             style="fill:#9ac421;fill-opacity:1;fill-rule:evenodd;stroke:none"
             id="path539" />
        </g>
        <g
           id="g541"
           transform="translate(353.1309,389.5732)">
          <path
             d="m 0,0 h -41.755 c -6.197,0 -11.268,5.071 -11.268,11.27 0,6.198 5.071,11.27 11.268,11.27 H 0 c 6.197,0 11.268,-5.072 11.268,-11.27 C 11.268,5.071 6.197,0 0,0"
             style="fill:#9ac421;fill-opacity:1;fill-rule:evenodd;stroke:none"
             id="path543" />
        </g>
        <g
           id="g545"
           transform="translate(208.7012,389.5732)">
          <path
             d="m 0,0 h -103.254 c -6.199,0 -11.27,5.071 -11.27,11.27 0,6.198 5.071,11.27 11.27,11.27 H 0 c 6.197,0 11.269,-5.072 11.269,-11.27 C 11.269,5.071 6.197,0 0,0"
             style="fill:#9ac421;fill-opacity:1;fill-rule:evenodd;stroke:none"
             id="path547" />
        </g>
        <g
           id="g549"
           transform="translate(360.6387,479.7339)">
          <path
             d="m 0,0 h 226.594 c 14.908,0 14.908,22.542 0,22.542 h -55.76 c -14.908,0 -14.908,22.539 0,22.539 h 29.064 c 14.912,0 14.912,22.541 0,22.541 H 67.028 c -14.909,0 -14.909,-22.541 0,-22.541 h 27.286 c 14.913,0 14.913,-22.539 0,-22.539 H 0 C -14.908,22.542 -14.908,0 0,0"
             style="fill:#9ac421;fill-opacity:1;fill-rule:evenodd;stroke:none"
             id="path551" />
        </g>
        <g
           id="g553"
           transform="translate(551.6074,434.6528)">
          <path
             d="m 0,0 h -222.523 c -6.201,0 -11.272,5.071 -11.272,11.27 v 0.001 c 0,6.199 5.071,11.27 11.272,11.27 L 0,22.541 c 6.196,0 11.269,-5.071 11.269,-11.27 V 11.27 C 11.269,5.071 6.196,0 0,0"
             style="fill:#9ac421;fill-opacity:1;fill-rule:evenodd;stroke:none"
             id="path555" />
        </g>
        <g
           id="g557"
           transform="translate(0.0015,6.3867)">
          <path
             d="m 0,0 h 20.012 c 4.481,0 8.373,-2.65 10.185,-6.46 H 0 Z"
             style="fill:#9ac421;fill-opacity:1;fill-rule:evenodd;stroke:none"
             id="path559" />
        </g>
        <g
           id="g561"
           transform="translate(343.6035,405.3594)">
          <path
             d="m 0,0 h -138.145 c -14.908,0 -14.908,22.54 0,22.54 h 40.924 c 14.906,0 14.911,22.54 0,22.54 h -19.048 c -14.909,0 -14.902,22.54 0,22.54 H -8.323 c 14.902,0 14.908,-22.54 0,-22.54 h -44.525 c -14.911,0 -14.905,-22.54 0,-22.54 L 0,22.54 C 14.908,22.54 14.908,0 0,0"
             style="fill:#e5f18b;fill-opacity:1;fill-rule:evenodd;stroke:none"
             id="path563" />
        </g>
        <g
           id="g565"
           transform="translate(481.5518,119.0654)">
          <path
             d="m 0,0 h -268.41 c -14.911,0 -14.911,22.54 0,22.54 h 86.601 c 14.909,0 14.912,22.54 0,22.54 h -21.353 c -14.912,0 -14.912,22.54 0,22.54 h 88.382 c 14.911,0 14.911,22.541 0,22.541 h -88.382 c -14.912,0 -14.912,22.541 0,22.541 H 23.429 c 14.911,0 14.911,-22.541 0,-22.541 h -84.23 c -14.811,0 -14.811,-22.541 0,-22.541 H 75.628 c 14.911,0 14.911,-22.54 0,-22.54 H -98.443 c -14.909,0 -14.909,-22.54 0,-22.54 L 0,22.54 C 14.908,22.54 14.908,0 0,0"
             style="fill:#e5f18b;fill-opacity:1;fill-rule:evenodd;stroke:none"
             id="path567" />
        </g>
        <g
           id="g569"
           transform="translate(600.0752,20.9893)">
          <path
             d="m 0,0 h -79.177 c -14.908,0 -14.908,22.54 0,22.54 h 55.757 c 14.912,0 14.912,22.539 0,22.539 h -29.064 c -14.909,0 -14.909,22.54 0,22.54 H 0 Z"
             style="fill:#e5f18b;fill-opacity:1;fill-rule:evenodd;stroke:none"
             id="path571" />
        </g>
        <g
           id="g573"
           transform="translate(186.6372,22.4756)">
          <path
             d="m 0,0 h -125.099 c -14.91,0 -14.91,22.54 0,22.54 h 27.878 c 14.908,0 14.911,22.539 0,22.539 h -64.472 c -14.912,0 -14.907,22.54 0,22.54 h 267.981 c 14.908,0 14.911,-22.54 0,-22.54 h -126.99 c -14.908,0 -14.905,-22.539 0,-22.539 H 0 C 14.912,22.54 14.912,0 0,0"
             style="fill:#e5f18b;fill-opacity:1;fill-rule:evenodd;stroke:none"
             id="path575" />
        </g>
        <g
           id="g577"
           transform="translate(312.0068,538.7197)">
          <path
             d="m 0,0 h -268.41 c -14.91,0 -14.91,22.54 0,22.54 h 124.808 c 14.908,0 14.908,22.54 0,22.54 h -59.561 c -9.695,0 -13.083,9.532 -10.167,16.199 H -4.82 C -1.905,54.612 -5.293,45.08 -14.99,45.08 h -83.45 c -14.911,0 -14.909,-22.54 0,-22.54 H 0 C 14.908,22.54 14.908,0 0,0"
             style="fill:#e5f18b;fill-opacity:1;fill-rule:evenodd;stroke:none"
             id="path579" />
        </g>
        <g
           id="g581"
           transform="translate(600.0752,374.7603)">
          <path
             d="m 0,0 c -1.141,0.362 -2.414,0.564 -3.822,0.564 h -20.359 c -14.911,0 -14.908,22.54 0,22.54 H 0 Z m 0,-89.598 h -157.452 c -14.911,0 -14.911,22.541 0,22.541 h 83.808 c 14.906,0 14.909,22.54 0,22.54 h -143.422 c -14.909,0 -14.909,22.54 0,22.54 H -3.822 c 1.408,0 2.681,0.202 3.822,0.564 z"
             style="fill:#e5f18b;fill-opacity:1;fill-rule:evenodd;stroke:none"
             id="path583" />
        </g>
        <g
           id="g585"
           transform="translate(85.6172,355.7617)">
          <path
             d="M 0,0 H -85.616 V 22.54 H 0 c 6.199,0 11.27,-5.072 11.27,-11.27 C 11.27,5.071 6.199,0 0,0"
             style="fill:#e5f18b;fill-opacity:1;fill-rule:evenodd;stroke:none"
             id="path587" />
        </g>
        <g
           id="g589"
           transform="translate(243.5923,277.4229)">
          <path
             d="m 0,0 h -68.775 c -6.2,0 -11.272,5.071 -11.272,11.27 v 0.001 c 0,6.199 5.072,11.27 11.272,11.27 H 0 c 6.2,0 11.271,-5.071 11.271,-11.27 V 11.27 C 11.271,5.071 6.2,0 0,0"
             style="fill:#e5f18b;fill-opacity:1;fill-rule:evenodd;stroke:none"
             id="path591" />
        </g>
        <g
           id="g593"
           transform="translate(134.666,209.8008)">
          <path
             d="m 0,0 h -41.755 c -6.199,0 -11.27,5.072 -11.27,11.27 v 0.001 c 0,6.2 5.071,11.271 11.27,11.271 H 0 c 6.197,0 11.269,-5.071 11.269,-11.271 V 11.27 C 11.269,5.072 6.197,0 0,0"
             style="fill:#e5f18b;fill-opacity:1;fill-rule:evenodd;stroke:none"
             id="path595" />
        </g>
        <g
           id="g597"
           transform="translate(519.7012,524.8154)">
          <path
             d="m 0,0 h -103.255 c -6.196,0 -11.267,5.071 -11.267,11.27 0,6.198 5.071,11.27 11.267,11.27 H 0 c 6.196,0 11.271,-5.072 11.271,-11.27 C 11.271,5.071 6.196,0 0,0"
             style="fill:#e5f18b;fill-opacity:1;fill-rule:evenodd;stroke:none"
             id="path599" />
        </g>
      </g>
    </g>
  </g>
</svg>
